<?xml version="1.0" standalone="no"?>
<!DOCTYPE svg PUBLIC "-//W3C//DTD SVG 20010904//EN"
 "http://www.w3.org/TR/2001/REC-SVG-20010904/DTD/svg10.dtd">
<svg version="1.0" xmlns="http://www.w3.org/2000/svg"
 width="300.000000pt" height="286.000000pt" viewBox="0 0 300.000000 286.000000"
 preserveAspectRatio="xMidYMid meet">
<metadata>
Created by potrace 1.10, written by Peter Selinger 2001-2011
</metadata>
<g transform="translate(0.000000,286.000000) scale(0.100000,-0.100000)"
fill="#000000" stroke="none">
<path d="M2627 2683 c-11 -66 -61 -156 -111 -200 -94 -83 -184 -79 -371 15
-143 71 -203 92 -296 99 -90 7 -219 -5 -198 -18 8 -5 25 -9 39 -9 96 0 253
-72 446 -202 175 -118 240 -142 371 -136 163 6 261 77 338 241 23 51 45 104
49 118 6 28 21 21 -250 126 -7 2 -14 -12 -17 -34z m146 -60 c82 -32 84 -42 26
-154 -72 -138 -168 -199 -313 -199 -104 0 -167 25 -335 136 -165 109 -156 102
-149 109 3 3 56 -20 119 -51 188 -92 269 -102 373 -46 55 30 127 118 147 180
15 48 29 64 48 57 9 -3 46 -18 84 -32z"/>
<path d="M1079 2510 c-294 -53 -562 -218 -741 -453 -77 -103 -160 -274 -195
-403 -25 -91 -27 -114 -27 -294 0 -180 2 -203 26 -293 107 -392 410 -708 788
-821 132 -39 204 -49 345 -49 537 1 992 357 1126 881 97 378 -9 787 -278 1072
-163 173 -328 272 -558 337 -77 21 -115 26 -265 28 -96 2 -196 0 -221 -5z
m476 -64 c210 -54 432 -192 567 -351 245 -290 330 -655 237 -1019 -166 -650
-859 -1004 -1496 -764 -355 134 -618 449 -698 837 -18 86 -21 297 -5 394 73
460 441 834 906 922 125 23 362 14 489 -19z"/>
<path d="M1230 2225 c-8 -2 -32 -6 -53 -10 -42 -7 -100 -52 -123 -96 -24 -47
-17 -125 19 -214 45 -113 83 -172 119 -191 43 -22 148 -16 179 11 12 11 45 67
73 125 48 99 51 109 51 185 0 95 -19 131 -88 163 -39 19 -143 34 -177 27z
m176 -69 c39 -26 52 -44 59 -86 8 -47 -32 -174 -83 -260 l-38 -65 -74 0 -75 0
-55 107 c-45 90 -55 118 -58 173 -5 72 7 101 55 132 52 34 215 34 269 -1z"/>
<path d="M1873 1800 c-17 -4 -53 -20 -80 -35 -62 -37 -200 -174 -208 -208 -10
-38 33 -155 65 -179 39 -29 225 -53 303 -39 110 19 157 74 157 182 0 172 -115
307 -237 279z m107 -60 c46 -33 92 -137 94 -212 2 -110 -47 -150 -179 -150
-71 0 -215 19 -231 31 -5 3 -19 35 -31 71 l-22 65 82 83 c53 54 103 93 142
113 66 33 97 33 145 -1z"/>
<path d="M543 1771 c-73 -53 -118 -160 -111 -264 4 -74 32 -118 93 -150 75
-38 316 -20 374 28 32 28 66 131 56 173 -9 36 -146 171 -215 210 -75 43 -140
44 -197 3z m182 -39 c63 -40 122 -91 164 -141 l39 -46 -21 -65 c-11 -36 -25
-68 -30 -71 -22 -15 -161 -31 -244 -28 -89 4 -93 5 -128 39 -37 35 -37 35 -33
111 4 105 44 184 108 217 53 26 85 23 145 -16z"/>
<path d="M1234 1489 c-18 -5 -46 -25 -63 -44 -26 -30 -31 -44 -31 -85 0 -41 5
-55 30 -83 59 -68 131 -73 188 -14 69 71 62 150 -19 208 -32 24 -67 30 -105
18z m109 -69 c38 -43 36 -83 -7 -126 -44 -44 -83 -45 -128 -5 -27 24 -33 36
-33 69 0 94 104 132 168 62z"/>
<path d="M855 1073 c-161 -84 -231 -178 -205 -275 22 -79 158 -189 254 -205
43 -7 111 25 145 68 34 44 68 144 83 244 10 74 10 90 -3 113 -22 40 -116 102
-153 102 -17 -1 -71 -22 -121 -47z m181 -18 c25 -19 50 -35 55 -35 24 0 -4
-192 -41 -278 -49 -114 -126 -137 -235 -71 -142 85 -171 184 -81 273 34 34
222 144 248 146 4 0 28 -16 54 -35z"/>
<path d="M1484 1087 c-27 -19 -58 -49 -68 -67 -18 -30 -18 -39 -7 -113 26
-171 71 -261 148 -298 55 -27 107 -21 180 21 91 52 162 143 163 209 0 41 -39
108 -88 152 -57 50 -210 129 -251 129 -16 0 -50 -14 -77 -33z m130 -22 c196
-87 280 -190 232 -284 -32 -62 -164 -151 -224 -151 -29 0 -71 22 -99 52 -29
31 -59 125 -75 232 -12 88 -12 89 11 105 12 9 37 28 54 43 18 15 35 28 38 28
4 0 32 -11 63 -25z"/>
</g>
</svg>
